<svg width="30.395mm" height="30.395mm" version="1.1" viewBox="0 0 30.395 30.395" xml:space="preserve" xmlns="http://www.w3.org/2000/svg"><g transform="translate(-19.798 -16.162)" stroke-width=".26458"><g transform="translate(0 5.2917)"><path d="m33.618 35.872q-1.9304 0-3.4798-0.8636-1.5494-0.889-2.4638-2.4638-0.889-1.5748-0.889-3.7084 0-2.159 0.889-3.7338 0.9144-1.5748 2.4638-2.4384t3.4798-0.8636q1.7272 0 3.0226 0.762t2.0066 2.3114 0.7112 3.9624q0 2.3876-0.6858 3.9624-0.6858 1.5494-1.9812 2.3114-1.27 0.762-3.0734 0.762zm0.6858-3.2512q0.9652 0 1.7526-0.4572t1.2446-1.2954q0.4826-0.8636 0.4826-2.032 0-1.1938-0.4826-2.032-0.4572-0.8382-1.2446-1.2954t-1.7526-0.4572q-0.9906 0-1.778 0.4572t-1.27 1.2954q-0.4572 0.8382-0.4572 2.032 0 1.1684 0.4572 2.032 0.4826 0.8382 1.27 1.2954t1.778 0.4572zm3.5814 3.048v-2.794l0.0762-4.064-0.254-4.0386v-7.9502h3.9624v18.847z"/></g><g transform="translate(0 5.2917)" fill="#f0803c"><path d="m25.047 35.974q-1.778 0-2.6882-0.889-0.91017-0.889-0.91017-2.5612v-4.3603q0-0.52917-0.254-0.762-0.254-0.254-0.6985-0.254h-0.6985v-2.159h0.6985q0.4445 0 0.6985-0.254 0.254-0.254 0.254-0.762v-4.3603q0-1.6933 0.91017-2.5612 0.91017-0.889 2.6882-0.889h1.0583v2.1167h-0.4445q-0.78317 0-1.1853 0.42333-0.381 0.42333-0.381 1.1853v4.0217q0 0.84667-0.21167 1.3123-0.21167 0.46567-0.67733 0.6985-0.4445 0.21167-1.1642 0.3175v-0.33867q0.71967 0.08467 1.1642 0.3175 0.46567 0.23283 0.67733 0.6985 0.21167 0.46567 0.21167 1.3123v4.0217q0 0.762 0.381 1.1853 0.40217 0.42333 1.1853 0.42333h0.4445v2.1167z"/></g><g transform="translate(0 5.2917)" fill="#f0803c"><path d="m44.923 35.974h-1.0583v-2.1167h0.4445q0.80433 0 1.1853-0.42333 0.40217-0.42333 0.40217-1.1853v-4.0217q0-0.84667 0.21167-1.3123 0.23283-0.46567 0.67734-0.6985 0.4445-0.23283 1.143-0.3175v0.33867q-0.6985-0.10583-1.143-0.3175-0.4445-0.23283-0.67734-0.6985-0.21167-0.46567-0.21167-1.3123v-4.0217q0-0.762-0.40217-1.1853-0.381-0.42333-1.1853-0.42333h-0.4445v-2.1167h1.0583q1.7992 0 2.7093 0.889 0.91017 0.86784 0.91017 2.5612v4.3603q0 0.508 0.254 0.762 0.254 0.254 0.67734 0.254h0.71967v2.159h-0.71967q-0.42334 0-0.67734 0.254-0.254 0.23283-0.254 0.762v4.3603q0 1.6722-0.91017 2.5612-0.91017 0.889-2.7093 0.889z"/></g></g></svg>
