<svg width="175.58mm" height="21.609mm" version="1.1" viewBox="0 0 175.58 21.609" xmlns="http://www.w3.org/2000/svg">
 <g transform="translate(-4.0311 -15.679)" stroke-width=".26458">
  <g aria-label="dimitri.">
   <path d="m10.864 35.872q-1.9304 0-3.4798-0.8636-1.5494-0.889-2.4638-2.4638-0.889-1.5748-0.889-3.7084 0-2.159 0.889-3.7338 0.9144-1.5748 2.4638-2.4384t3.4798-0.8636q1.7272 0 3.0226 0.762 1.2954 0.762 2.0066 2.3114t0.7112 3.9624q0 2.3876-0.6858 3.9624-0.6858 1.5494-1.9812 2.3114-1.27 0.762-3.0734 0.762zm0.6858-3.2512q0.9652 0 1.7526-0.4572t1.2446-1.2954q0.4826-0.8636 0.4826-2.032 0-1.1938-0.4826-2.032-0.4572-0.8382-1.2446-1.2954t-1.7526-0.4572q-0.9906 0-1.778 0.4572-0.7874 0.4572-1.27 1.2954-0.4572 0.8382-0.4572 2.032 0 1.1684 0.4572 2.032 0.4826 0.8382 1.27 1.2954 0.7874 0.4572 1.778 0.4572zm3.5814 3.048v-2.794l0.0762-4.064-0.254-4.0386v-7.9502h3.9624v18.847z"/>
   <path d="m22.573 35.669v-13.665h3.9624v13.665zm1.9812-15.57q-1.0922 0-1.778-0.635t-0.6858-1.5748 0.6858-1.5748 1.778-0.635 1.778 0.6096q0.6858 0.5842 0.6858 1.524 0 0.9906-0.6858 1.651-0.6604 0.635-1.778 0.635z"/>
   <path d="m47.719 21.801q1.6256 0 2.8702 0.6604 1.27 0.635 1.9812 1.9812 0.7366 1.3208 0.7366 3.4036v7.8232h-3.9624v-7.2136q0-1.651-0.6858-2.4384t-1.9304-0.7874q-0.8636 0-1.5494 0.4064-0.6858 0.381-1.0668 1.1684t-0.381 2.0066v6.858h-3.9624v-7.2136q0-1.651-0.6858-2.4384-0.6604-0.7874-1.905-0.7874-0.8636 0-1.5494 0.4064-0.6858 0.381-1.0668 1.1684t-0.381 2.0066v6.858h-3.9624v-13.665h3.7846v3.7338l-0.7112-1.0922q0.7112-1.397 2.0066-2.1082 1.3208-0.7366 2.9972-0.7366 1.8796 0 3.2766 0.9652 1.4224 0.9398 1.8796 2.8956l-1.397-0.381q0.6858-1.6002 2.1844-2.54 1.524-0.9398 3.4798-0.9398z"/>
   <path d="m56.863 35.669v-13.665h3.9624v13.665zm1.9812-15.57q-1.0922 0-1.778-0.635t-0.6858-1.5748 0.6858-1.5748 1.778-0.635 1.778 0.6096q0.6858 0.5842 0.6858 1.524 0 0.9906-0.6858 1.651-0.6604 0.635-1.778 0.635z"/>
   <path d="m70.096 35.872q-2.413 0-3.7592-1.2192-1.3462-1.2446-1.3462-3.683v-11.989h3.9624v11.938q0 0.8636 0.4572 1.3462 0.4572 0.4572 1.2446 0.4572 0.9398 0 1.6002-0.508l1.0668 2.794q-0.6096 0.4318-1.4732 0.6604-0.8382 0.2032-1.7526 0.2032zm-7.2136-10.516v-3.048h9.4742v3.048z"/>
   <path d="m75.557 35.669v-13.665h3.7846v3.8608l-0.5334-1.1176q0.6096-1.4478 1.9558-2.1844 1.3462-0.762 3.2766-0.762v3.6576q-0.254-0.0254-0.4572-0.0254-0.2032-0.0254-0.4318-0.0254-1.6256 0-2.6416 0.9398-0.9906 0.9144-0.9906 2.8702v6.4516z"/>
   <path d="m86.413 35.669v-13.665h3.9624v13.665zm1.9812-15.57q-1.0922 0-1.778-0.635t-0.6858-1.5748 0.6858-1.5748 1.778-0.635 1.778 0.6096q0.6858 0.5842 0.6858 1.524 0 0.9906-0.6858 1.651-0.6604 0.635-1.778 0.635z"/>
   <path d="m95.557 35.872q-1.016 0-1.7526-0.6858-0.7112-0.7112-0.7112-1.8034t0.7112-1.7526q0.7366-0.6858 1.7526-0.6858 1.0414 0 1.7526 0.6858 0.7112 0.6604 0.7112 1.7526t-0.7112 1.8034q-0.7112 0.6858-1.7526 0.6858z"/>
  </g>
  <g fill="#f0803c">
   <g aria-label="{">
    <path d="m102.94 37.288q-1.6595 0-2.509-0.82974-0.84949-0.82974-0.84949-2.3904v-4.0697q0-0.49389-0.23707-0.7112-0.23707-0.23707-0.65194-0.23707h-0.65194v-2.0151h0.65194q0.41487 0 0.65194-0.23707 0.23707-0.23707 0.23707-0.7112v-4.0697q0-1.5804 0.84949-2.3904 0.84949-0.82974 2.509-0.82974h0.98778v1.9756h-0.41487q-0.73095 0-1.1063 0.39511-0.3556 0.39511-0.3556 1.1063v3.7536q0 0.79022-0.19756 1.2248-0.19755 0.43462-0.63218 0.65194-0.41486 0.19756-1.0866 0.29633v-0.31609q0.67169 0.07902 1.0866 0.29633 0.43463 0.21731 0.63218 0.65194 0.19756 0.43462 0.19756 1.2248v3.7536q0 0.7112 0.3556 1.1063 0.37536 0.39511 1.1063 0.39511h0.41487v1.9756z"/>
   </g>
   <g aria-label="codes">
    <path d="m110.95 35.636q-2.1336 0-3.81-0.889-1.651-0.9144-2.5908-2.4892t-0.9398-3.5814q0-2.032 0.9398-3.5814 0.9398-1.5748 2.5908-2.4638 1.6764-0.889 3.81-0.889 1.9812 0 3.4798 0.8128 1.524 0.7874 2.3114 2.3368l-2.4384 1.4224q-0.6096-0.9652-1.4986-1.4224-0.8636-0.4572-1.8796-0.4572-1.1684 0-2.1082 0.508t-1.4732 1.4732q-0.5334 0.9398-0.5334 2.2606t0.5334 2.286q0.5334 0.9398 1.4732 1.4478t2.1082 0.508q1.016 0 1.8796-0.4572 0.889-0.4572 1.4986-1.4224l2.4384 1.4224q-0.7874 1.524-2.3114 2.3622-1.4986 0.8128-3.4798 0.8128z"/>
    <path d="m124.07 35.636q-2.0828 0-3.7084-0.889-1.6256-0.9144-2.5654-2.4892t-0.9398-3.5814q0-2.032 0.9398-3.5814 0.9398-1.5748 2.5654-2.4638t3.7084-0.889q2.1082 0 3.7338 0.889 1.651 0.889 2.5654 2.4384 0.9398 1.5494 0.9398 3.6068 0 2.0066-0.9398 3.5814-0.9144 1.5748-2.5654 2.4892-1.6256 0.889-3.7338 0.889zm0-2.7178q1.1684 0 2.0828-0.508t1.4224-1.4732q0.5334-0.9652 0.5334-2.2606 0-1.3208-0.5334-2.2606-0.508-0.9652-1.4224-1.4732t-2.0574-0.508q-1.1684 0-2.0828 0.508-0.889 0.508-1.4224 1.4732-0.5334 0.9398-0.5334 2.2606 0 1.2954 0.5334 2.2606 0.5334 0.9652 1.4224 1.4732 0.9144 0.508 2.0574 0.508z"/>
    <path d="m138.77 35.636q-1.9558 0-3.5306-0.8636-1.5494-0.889-2.4384-2.4384t-0.889-3.6576q0-2.1082 0.889-3.6576t2.4384-2.413q1.5748-0.8636 3.5306-0.8636 1.7018 0 3.048 0.762 1.3462 0.7366 2.1336 2.2606t0.7874 3.9116q0 2.3622-0.762 3.9116-0.762 1.524-2.1082 2.286t-3.0988 0.762zm0.381-2.7178q1.143 0 2.032-0.508 0.9144-0.508 1.4478-1.4732 0.5588-0.9652 0.5588-2.2606 0-1.3208-0.5588-2.2606-0.5334-0.9652-1.4478-1.4732-0.889-0.508-2.032-0.508t-2.0574 0.508q-0.889 0.508-1.4478 1.4732-0.5334 0.9398-0.5334 2.2606 0 1.2954 0.5334 2.2606 0.5588 0.9652 1.4478 1.4732 0.9144 0.508 2.0574 0.508zm4.1148 2.54v-3.2004l0.127-3.6068-0.254-3.6068v-8.4328h3.1496v18.847z"/>
    <path d="m155.54 35.636q-2.2606 0-3.9624-0.889-1.6764-0.9144-2.6162-2.4892-0.9144-1.5748-0.9144-3.5814 0-2.032 0.889-3.5814 0.9144-1.5748 2.4892-2.4638 1.6002-0.889 3.6322-0.889 1.9812 0 3.5306 0.8636t2.4384 2.4384 0.889 3.7084q0 0.2032-0.0254 0.4572 0 0.254-0.0254 0.4826h-11.303v-2.1082h9.6266l-1.2446 0.6604q0.0254-1.1684-0.4826-2.0574t-1.397-1.397q-0.8636-0.508-2.0066-0.508-1.1684 0-2.0574 0.508-0.8636 0.508-1.3716 1.4224-0.4826 0.889-0.4826 2.1082v0.508q0 1.2192 0.5588 2.159 0.5588 0.9398 1.5748 1.4478t2.3368 0.508q1.143 0 2.0574-0.3556t1.6256-1.1176l1.7018 1.9558q-0.9144 1.0668-2.3114 1.651-1.3716 0.5588-3.1496 0.5588z"/>
    <path d="m167.83 35.636q-1.7018 0-3.2766-0.4318-1.5494-0.4572-2.4638-1.0922l1.2192-2.413q0.9144 0.5842 2.1844 0.9652t2.54 0.381q1.4986 0 2.159-0.4064 0.6858-0.4064 0.6858-1.0922 0-0.5588-0.4572-0.8382-0.4572-0.3048-1.1938-0.4572-0.7366-0.1524-1.651-0.2794-0.889-0.127-1.8034-0.3302-0.889-0.2286-1.6256-0.635-0.7366-0.4318-1.1938-1.143t-0.4572-1.8796q0-1.2954 0.7366-2.2352 0.7366-0.9652 2.0574-1.4732 1.3462-0.5334 3.175-0.5334 1.3716 0 2.7686 0.3048t2.3114 0.8636l-1.2192 2.413q-0.9652-0.5842-1.9558-0.7874-0.9652-0.2286-1.9304-0.2286-1.4478 0-2.159 0.4318-0.6858 0.4318-0.6858 1.0922 0 0.6096 0.4572 0.9144t1.1938 0.4826 1.6256 0.3048q0.9144 0.1016 1.8034 0.3302t1.6256 0.635q0.762 0.381 1.2192 1.0922t0.4572 1.8542q0 1.27-0.762 2.2098-0.7366 0.9398-2.1082 1.4732-1.3716 0.508-3.2766 0.508z"/>
   </g>
   <g aria-label="}">
    <path d="m174.69 36.924h-0.98778v-1.9756h0.41487q0.75071 0 1.1063-0.39511 0.37536-0.39511 0.37536-1.1063v-3.7536q0-0.79022 0.19756-1.2248 0.21731-0.43462 0.63218-0.65194 0.41486-0.21731 1.0668-0.29633v0.31609q-0.65194-0.09878-1.0668-0.29633-0.41487-0.21731-0.63218-0.65194-0.19756-0.43462-0.19756-1.2248v-3.7536q0-0.7112-0.37536-1.1063-0.3556-0.39511-1.1063-0.39511h-0.41487v-1.9756h0.98778q1.6792 0 2.5287 0.82974 0.84949 0.80998 0.84949 2.3904v4.0697q0 0.47414 0.23707 0.7112t0.63218 0.23707h0.67169v2.0151h-0.67169q-0.39511 0-0.63218 0.23707-0.23707 0.21731-0.23707 0.7112v4.0697q0 1.5607-0.84949 2.3904-0.84949 0.82974-2.5287 0.82974z"/>
   </g>
  </g>
 </g>
</svg>
