<?xml version="1.0" standalone="no"?>
<!DOCTYPE svg PUBLIC "-//W3C//DTD SVG 20010904//EN"
 "http://www.w3.org/TR/2001/REC-SVG-20010904/DTD/svg10.dtd">
<svg version="1.0" xmlns="http://www.w3.org/2000/svg"
 width="800.000000pt" height="400.000000pt" viewBox="0 0 800.000000 400.000000"
 preserveAspectRatio="xMidYMid meet">
<title>Logo</title>
<g transform="translate(0.000000,400.000000) scale(0.100000,-0.100000)"
stroke="none">
<path d="M210 2039 l0 -711 253 4 c234 3 256 5 309 27 76 30 151 87 200 152
53 71 73 111 105 216 26 84 27 97 27 308 0 196 -2 229 -22 298 -45 162 -141
301 -250 360 -90 49 -146 57 -394 57 l-228 0 0 -711z m461 479 c130 -55 199
-222 199 -480 0 -203 -32 -319 -114 -414 -47 -55 -113 -82 -220 -90 l-86 -7 0
513 0 513 86 -7 c52 -4 105 -15 135 -28z"/>
<path d="M1330 2040 l0 -710 115 0 115 0 0 710 0 710 -115 0 -115 0 0 -710z"/>
<path d="M1860 2040 l0 -710 110 0 110 0 2 525 3 525 135 -525 135 -525 101 0
102 0 19 73 c11 39 73 276 139 525 l119 452 3 -525 2 -525 115 0 115 0 0 710
0 710 -173 0 -172 0 -130 -505 c-71 -278 -132 -505 -135 -505 -3 0 -61 213
-130 473 -68 259 -127 487 -132 505 l-9 32 -164 0 -165 0 0 -710z"/>
<path d="M3350 2040 l0 -710 115 0 115 0 0 710 0 710 -115 0 -115 0 0 -710z"/>
<path d="M3730 2650 l0 -100 135 0 135 0 0 -610 0 -610 115 0 115 0 0 610 0
610 135 0 135 0 0 100 0 100 -385 0 -385 0 0 -100z"/>
<path d="M4640 2040 l0 -710 115 0 115 0 0 300 0 300 64 0 63 0 109 -300 109
-300 132 0 132 0 -13 38 c-8 20 -64 165 -125 321 -61 156 -108 288 -105 292 3
5 11 9 19 9 29 0 122 99 151 162 27 60 29 70 29 198 0 132 -1 137 -32 200 -50
102 -104 150 -204 181 -53 17 -93 19 -310 19 l-249 0 0 -710z m475 475 c60
-34 85 -89 85 -183 0 -81 -10 -115 -48 -156 -40 -42 -85 -57 -189 -63 l-93 -6
0 223 0 223 101 -6 c83 -5 109 -11 144 -32z"/>
<path d="M6150 2040 l0 -710 115 0 115 0 0 710 0 710 -115 0 -115 0 0 -710z"/>
<path d="M6700 2040 l0 -710 65 0 65 0 2 615 3 616 171 -613 171 -613 71 -3
71 -3 14 48 c8 26 85 303 173 614 l159 566 3 -614 2 -613 65 0 65 0 0 710 0
711 -111 -3 -112 -3 -161 -582 c-89 -320 -163 -584 -167 -587 -3 -3 -79 259
-170 582 l-164 587 -108 3 -107 3 0 -711z"/>
<path d="M5673 1566 c-33 -30 -37 -39 -41 -96 -8 -107 38 -160 138 -160 47 0
56 4 91 39 36 36 39 43 39 95 0 103 -47 156 -136 156 -48 0 -59 -4 -91 -34z"/>
</g>
</svg>
