<?xml version="1.0" standalone="no"?>
<!DOCTYPE svg PUBLIC "-//W3C//DTD SVG 20010904//EN"
 "http://www.w3.org/TR/2001/REC-SVG-20010904/DTD/svg10.dtd">
<svg version="1.0" xmlns="http://www.w3.org/2000/svg"
 width="1024.000000pt" height="1024.000000pt" viewBox="0 0 1024.000000 1024.000000"
 preserveAspectRatio="xMidYMid meet">
<metadata>
Created by potrace 1.15, written by Peter Selinger 2001-2017
</metadata>
<g transform="translate(0.000000,1024.000000) scale(0.100000,-0.100000)"
fill="#000000" stroke="none">
<path d="M330 4790 l0 -2550 699 0 c770 0 827 3 1059 61 321 79 549 206 772
429 69 69 155 166 190 217 238 340 381 750 447 1288 23 189 26 857 5 1050 -54
487 -176 891 -364 1204 -250 418 -595 678 -1048 790 -235 58 -290 61 -1061 61
l-699 0 0 -2550z m1395 1765 c417 -87 718 -440 850 -1000 60 -251 69 -359 69
-770 0 -426 -10 -532 -79 -800 -119 -464 -353 -779 -677 -910 -137 -55 -213
-66 -505 -72 l-263 -6 0 1793 0 1793 263 -6 c187 -4 285 -10 342 -22z"/>
<path d="M4770 4790 l0 -2550 250 0 250 0 0 2550 0 2550 -250 0 -250 0 0
-2550z"/>
<path d="M5830 4790 l0 -2550 235 0 235 0 0 2215 c0 1218 3 2215 8 2215 4 0
281 -976 617 -2168 335 -1192 615 -2188 623 -2215 l14 -47 240 2 241 3 625
2208 c344 1214 629 2207 634 2207 4 0 8 -994 8 -2210 l0 -2210 250 0 250 0 0
2550 0 2550 -392 0 -393 0 -601 -2152 c-331 -1184 -605 -2153 -610 -2155 -6
-2 -284 967 -619 2152 l-609 2155 -378 0 -378 0 0 -2550z"/>
<path d="M3889 2896 c-74 -26 -142 -91 -186 -176 -26 -51 -28 -63 -28 -175 0
-105 3 -126 23 -166 37 -74 87 -125 157 -160 60 -29 69 -31 157 -27 72 2 104
8 140 26 63 31 126 96 157 162 23 49 26 67 26 170 0 106 -2 119 -28 168 -40
76 -90 127 -159 162 -53 26 -71 30 -142 30 -45 -1 -97 -7 -117 -14z"/>
</g>
</svg>
