<?xml version="1.0" standalone="no"?>
<!DOCTYPE svg PUBLIC "-//W3C//DTD SVG 20010904//EN"
 "http://www.w3.org/TR/2001/REC-SVG-20010904/DTD/svg10.dtd">
<svg version="1.0" xmlns="http://www.w3.org/2000/svg"
 width="512.000000pt" height="512.000000pt" viewBox="0 0 512.000000 512.000000"
 preserveAspectRatio="xMidYMid meet">
<style>
g { fill: #3C4044; }
@media (prefers-color-scheme: dark) { g { fill: #DBE2E5; } }
</style>
<g transform="translate(0.000000,512.000000) scale(0.100000,-0.100000)"
stroke="none">
<path d="M1090 2530 l0 -2430 669 0 c726 0 791 4 1016 57 737 173 1214 779
1359 1723 35 229 46 385 46 640 0 809 -188 1437 -563 1878 -261 308 -634 496
-1097 552 -50 6 -360 10 -757 10 l-673 0 0 -2430z m1440 1766 c185 -42 318
-115 451 -246 223 -219 351 -512 421 -960 21 -134 22 -178 22 -565 0 -387 -1
-431 -22 -563 -51 -324 -140 -577 -278 -789 -21 -32 -83 -103 -138 -158 -108
-107 -200 -167 -324 -212 -131 -48 -181 -54 -509 -60 l-313 -6 0 1793 0 1793
313 -6 c221 -4 331 -10 377 -21z"/>
</g>
</svg>
